<?xml version="1.0" encoding="utf-8"?>
<!-- Generator: Adobe Illustrator 15.0.0, SVG Export Plug-In . SVG Version: 6.00 Build 0)  -->
<!DOCTYPE svg PUBLIC "-//W3C//DTD SVG 1.1//EN" "http://www.w3.org/Graphics/SVG/1.1/DTD/svg11.dtd">
<svg version="1.1" id="Capa_1" xmlns="http://www.w3.org/2000/svg" xmlns:xlink="http://www.w3.org/1999/xlink" x="0px" y="0px"
	 width="1048.82px" height="1502.36px" viewBox="0 0 1048.82 1502.36" enable-background="new 0 0 1048.82 1502.36"
	 xml:space="preserve">
<g>
	<defs>
		<rect id="SVGID_1_" width="1048.82" height="1502.36"/>
	</defs>
	<clipPath id="SVGID_2_">
		<use xlink:href="#SVGID_1_"  overflow="visible"/>
	</clipPath>
	<path clip-path="url(#SVGID_2_)" d="M731.855,720.559c0.301-0.95,1.168-1.695,3.011-2.095c1.847-0.401,2.184-0.581,2.759-0.823
		c0.57-0.245,0.338-2.109,0.338-2.109s-2.615-0.968-3.07-1.857c-0.455-0.892-1.292,0.676-1.579,1.141
		c-0.288,0.468-2.092,2.584-2.683,1.97c-0.594-0.616-1.145-2.269,0.546-6.698c0,0,0.169-0.709-1.259-1.824
		c-1.428-1.112-3.652-3.765-3.48-5.854c0.171-2.086,1.72-2.795,2.665-4.892c0.941-2.097,0.986-2.447,0.986-2.447
		s0.534-1.959,2.004-1.884c1.474,0.075,4.366,1.869,5.024,2.304c0.655,0.435,2.233-0.018,3.402-1.025l1.164-1.005
		c0,0,1.967-1.508,4.311,0.728c1.455,1.083-0.233,0.891-1.354,1.604c-1.116,0.711-2.649,2.222-2.68,2.454l-0.029,0.233
		c0,0,0.157,0.785,0.75,0.941c0.592,0.156,0.946,0.686,0.953,1.203c0.004,0.514,2.929,1.414,2.929,1.414s1.605-0.025-0.094,2.48
		c-0.045,0.121,0.34,0.877,0.847,1.273l0.51,0.396c0,0,1.462,1.139-0.024,2.126c0,0-2.489,1.228-1.086,5.129
		c0.247,0.599,2.721-0.28,2.721-0.28l0.397-0.05c0.395-0.048,1.187-0.147,1.566,0.61c0.378,0.756,1.131,0.778,1.354,0.75
		c0.229-0.028,0.51-0.064,0.51-0.064s2.404-0.986,4.464,0.366c2.061,1.35,3.586,2.539,6.845,3.341
		c3.256,0.802,5.226,0.497,7.35-1.371c2.117-1.869,2.546-3.531,4.101-3.953c0,0-1.668-6.507-1.771-10.111
		c-0.104-3.604-2.534-9.328-0.305-16.32c2.234-6.991,5.526-12.393,6.182-12.647c-0.021-0.17-1.127-3.533-0.392-6.84
		c0.738-3.305,1.832-5.622,2.763-5.507c0.932,0.113-0.59,3.995,0.192,5.255c1.724,2.773,1.874,5.853,1.874,5.853
		s4.365,0.032,6.753,0.769c0.013,0.113,1.554-0.422,2.288-0.054c0.737,0.369,1.78,1.386,2.869,1.826
		c1.088,0.439,3.335,0.962,5.282,1.87c1.947,0.905,3.758,1.601,5.52,1.956c1.769,0.355,4.579,1.726,7.275,4.033
		c2.696,2.305,2.792,4.935,2.651,5.64s-0.965,1.497-1.174,2.555c-0.216,1.061-1.529,2.485-2.394,2.937
		c-0.863,0.453-1.09,1.4-1.23,2.105c-0.142,0.707-1.16,0.832-1.768,1.482c-0.606,0.648-1.809,1.141-2.233,0.507
		c-0.424-0.636-1.555-0.498-2.23-0.413c-0.68,0.084-0.805-0.933-2.147-0.652c-1.343,0.282-2.105-0.312-5.241,0.306
		c-3.139,0.618-2.32,1.665-1.673,2.274c0.652,0.608,0.789,1.738,3.308,2.574c2.513,0.836,6.354,2.196,8.924,3.485
		c2.572,1.288,4.886,3.297,6.113,4.868c1.228,1.568,3.842,2.276,4.773,2.39c0.934,0.115,1.481-0.068,2.543,0.144
		c1.061,0.214,2.178-1.876,3.661-1.946c1.485-0.069,2.286,0.864,3.39,1.416c1.104,0.553,1.61,0.03,2.305-0.86
		c0.694-0.888,3.11-2.681,5.484-2.976c2.375-0.295,4.696-2.877,7.296-3.2c2.597-0.322,6.106-1.676,8.04-1.801
		c1.937-0.126,5.867-1.761,7.804-2.804c1.936-1.044,5.484-1.139,5.511,0.924c0.025,2.063-4.672,6.777-5.802,6.917
		c-1.13,0.142-3.503-1.402-5.115,0.405c-1.612,1.807-4,2.907-8.539,3.356c-4.533,0.448-7.56,1.052-9.144,3.083
		c-1.584,2.036-2.219,3.376-1.137,4.734c1.088,1.359,2.938,4.227,4.124,5.457c1.185,1.232,2.211,3.974,0.882,6.205
		c-1.33,2.232-0.723,3.418-0.637,4.096c0.084,0.679,0.374,3.973-2.408,5.579c-2.786,1.608-4.839,4.504-6.939,2.354
		c-2.105-2.149-0.461-8.324,2.863-10.227c0.636-0.425-0.028-1.146-0.024-2.063c0-0.919-0.681-1.754-0.791-2.656
		c-0.114-0.906-0.749-1.401-0.533-2.46c0.21-1.062-0.747-2.319-1.863-2.065c-1.12,0.252-0.794,1.936-1.729,2.739
		c-0.935,0.804,0.857,5.978-0.333,8.42c-1.189,2.445-4.906,3.939-4.921,5.663c-0.017,1.725,0.359,7.53-1.255,10.257
		c-1.614,2.725-2.845,4.829-1.898,5.976c0.945,1.145,4.636-0.575,7.027-3.513c2.39-2.937,3.192-2.923,3.773-2.88
		c-0.098,0.129,0.035,6.77-4.627,10.793c0.013,0.112,0.588,1.073,0.588,1.073s-0.399,2.344-1.854,3.56
		c-0.409,0.395-3.604,0.562-4.28,0.646c0.084-0.241-2.243-2.362-3.984-2.492c-0.337,0.043-4.141,2.696-5.398,4.575
		c-1.259,1.876-5.445,6.066-9.758,8.325c-4.311,2.256-5.333,6.058-4.941,8.303c0.395,2.249,2.286,3.619,4.052,4.893
		c1.764,1.273,12.578,13.48-6.142,23.605c-12.482,6.715-3.645,12.274-3.645,12.274s5.396,4.611,7.98,6.017
		c2.583,1.398,2.569,2.204,2.569,2.204s3.938,3.07,2.933,5.147c-0.324,0.151-2.204,0.731-4.637,0.57
		c-2.427-0.157-5.001,0.396-5.001,0.396s-1.831-2.76-5.786-5.023s-5.155-2.691-6.668-3.764c-1.512-1.077-5.633-4.699-6.241-4.967
		c-0.607-0.27,0.562,3.604,1.592,5.426c1.029,1.825,2.387,3.493,2.625,4.497c2.013,1.184,1.435,6.253,1.435,6.253l-7.062-0.732
		c-1.459,0.294-1.582-1.643-2.839-3.437c-1.257-1.796-5.022-7.185-6.941-9.7c-1.92-2.517-2.949-4.342-2.056-6.401
		c0.891-2.063,9.328-5.29,10.96-8.82c1.625-3.534,2.447-5.241-1.622-7.491c-4.067-2.252-12.338-10.639-12.971-12.97
		c0,0-0.903-1.723-2.586-0.483c-1.682,1.24-6.759,3.822-6.533,6.549c0.224,2.729,2.494,5.318,4.074,6.958
		c1.582,1.641,2.481,7.955-1.239,13.123c-3.721,5.17-8.641,8.076-17.05,7.855c-8.405-0.224-12.147-3.543-13.248-5.933
		c-0.94-1.807-0.94-2.498-0.549-2.801c0.394-0.308,1.942-0.326,3.104,0.043c1.167,0.374,5.427,0.705,6.435-2.949
		c1.013-3.657,0.052-7.927-0.61-11.202c-0.667-3.276,0.327-9.856,5.425-13.158c5.103-3.299,10.391-3.698,15.148-2.823
		c4.756,0.873,5.999-2.983,5.956-3.324c-0.041-0.337-1.625-4.79,1.976-11.864c3.598-7.078,8.816-11.515,8.235-15.485
		c0.075-0.094-1.683-1.085-7.183-1.004c-5.501,0.08-11.47-6.414-12.264-8.639c-0.011-0.085-1.823,1.259-1.823,1.259
		s-3.123-4.347-3.651-6.522c0,0-5.972,0.076-7.339-2.204C735.061,739.082,730.477,724.933,731.855,720.559"/>
	<path clip-path="url(#SVGID_2_)" fill="#FFFFFF" d="M763.123,729.014c0,0,5.316-0.832,5.582-0.779
		c0.266,0.054-0.519-0.022,0.595-0.073c1.112-0.052,0.944-0.032,1.112-0.052c0.171-0.021,0,0,0,0s1.781,0.467,3.678-0.198
		c1.897-0.666,3.222-1.777,3.753-2.359l0.531-0.584l1.09-0.221c0,0,2.992,10.219,2.234,13.841c-0.755,3.626-2.779,3.272-4.073,3.95
		c-1.292,0.678-2.543,1.006-4.642,0.749c-2.098-0.257-3.888-0.811-4.546-1.934c-0.654-1.123-1.087-3.911-2.006-5.09
		C765.51,735.088,762.42,730.307,763.123,729.014"/>
	<path clip-path="url(#SVGID_2_)" d="M787.607,578.02c0,0,21.244-0.16,29.935,13.037c0.483,0.482,77.253,7.242,97.05,109.602
		c0,0,16.416,65.664-22.693,138.57c0,0-7.402,9.658-1.608,14.809c5.794,5.149,11.907,13.195,6.113,23.496
		c-5.793,10.303-32.509,5.796-43.132-11.909c-9.334-15.45,1.935-40.235,5.151-48.281c3.218-8.048,17.381-44.422,15.45-80.15
		c-1.931-35.73-22.854-108.476-86.587-108.476s-86.907,71.78-85.622,118.133c1.287,46.351,17.38,78.862,17.38,78.862
		s15.128,29.29-4.184,49.248c-12.554,11.268-35.084,9.014-38.303-0.643c0,0-4.508-11.59,7.724-20.602
		c5.957-4.022-2.574-15.449-2.574-15.449s-41.846-59.391-18.669-149.679c0,0,19.313-82.403,93.025-97.531
		C756.063,590.734,767.328,578.502,787.607,578.02"/>
</g>
<text transform="matrix(1 0 0 1 128.0625 841.2827)"><tspan x="0" y="0" font-family="'MesquiteStd'" font-size="308.364" letter-spacing="55">M</tspan><tspan x="174.53" y="0" font-family="'MesquiteStd'" font-size="308.364" letter-spacing="55">E</tspan><tspan x="306.507" y="0" font-family="'MesquiteStd'" font-size="308.364" letter-spacing="55">S</tspan><tspan x="429.232" y="0" font-family="'MesquiteStd'" font-size="308.364">I</tspan></text>
<text transform="matrix(1 0 0 1 115.5107 882.6841)"><tspan x="0" y="0" font-family="'CenturySchoolbook'" font-size="23.1758" letter-spacing="9">M</tspan><tspan x="31.145" y="0" font-family="'CenturySchoolbook'" font-size="23.1758" letter-spacing="9">E</tspan><tspan x="57.129" y="0" font-family="'CenturySchoolbook'" font-size="23.1758" letter-spacing="9">N</tspan><tspan x="85.286" y="0" font-family="'CenturySchoolbook'" font-size="23.1758" letter-spacing="9">A</tspan><tspan x="111.27" y="0" font-family="'CenturySchoolbook'" font-size="23.1758" letter-spacing="9"> S</tspan><tspan x="150.848" y="0" font-family="'CenturySchoolbook'" font-size="23.1758" letter-spacing="9">I</tspan><tspan x="169.532" y="0" font-family="'CenturySchoolbook'" font-size="23.1758" letter-spacing="9">L</tspan><tspan x="194.261" y="0" font-family="'CenturySchoolbook'" font-size="23.1758" letter-spacing="9">VERI</tspan><tspan x="290.897" y="0" font-family="'CenturySchoolbook'" font-size="23.1758" letter-spacing="9">O </tspan><tspan x="333.904" y="0" font-family="'CenturySchoolbook'" font-size="23.1758" letter-spacing="9">I</tspan><tspan x="352.589" y="0" font-family="'CenturySchoolbook'" font-size="23.1758" letter-spacing="9">GN</tspan><tspan x="408.043" y="0" font-family="'CenturySchoolbook'" font-size="23.1758" letter-spacing="9">ACI</tspan><tspan x="478.696" y="0" font-family="'CenturySchoolbook'" font-size="23.1758">O</tspan></text>
<g>
	<defs>
		<rect id="SVGID_3_" width="1048.82" height="1502.36"/>
	</defs>
	<clipPath id="SVGID_4_">
		<use xlink:href="#SVGID_3_"  overflow="visible"/>
	</clipPath>
	<path clip-path="url(#SVGID_4_)" fill="#FFFFFF" d="M677.521,775.979c0,0-2.172-5.19,3.139-6.52
		c5.313-1.326,5.674,0.848,6.398,4.467c0.725,3.622,0.966,5.796-2.896,7.002C680.299,782.135,678.127,779.963,677.521,775.979"/>
	<path clip-path="url(#SVGID_4_)" fill="#FFFFFF" d="M674.589,724.707c0,0-0.615-5.593,4.854-5.364
		c5.471,0.229,5.203,2.415,4.873,6.093c-0.331,3.679-0.713,5.831-4.759,5.896C675.513,731.397,674.041,728.699,674.589,724.707"/>
	<path clip-path="url(#SVGID_4_)" fill="#FFFFFF" d="M688.435,675.647c0,0,0.899-5.555,6.108-3.874
		c5.211,1.681,4.37,3.716,3.069,7.173c-1.3,3.457-2.243,5.429-6.157,4.412C687.538,682.341,686.84,679.347,688.435,675.647"/>
	<path clip-path="url(#SVGID_4_)" fill="#FFFFFF" d="M714.684,630.569c0,0,2.363-5.106,6.925-2.082
		c4.567,3.026,3.206,4.758,1.021,7.737c-2.182,2.976-3.625,4.62-7.117,2.585C712.012,636.774,712.148,633.703,714.684,630.569"/>
	<path clip-path="url(#SVGID_4_)" fill="#FFFFFF" d="M896.516,775.979c0,0,2.173-5.19-3.138-6.52
		c-5.313-1.326-5.675,0.848-6.398,4.467c-0.725,3.622-0.965,5.796,2.896,7.002C893.739,782.135,895.912,779.963,896.516,775.979"/>
	<path clip-path="url(#SVGID_4_)" fill="#FFFFFF" d="M899.448,724.707c0,0,0.616-5.593-4.854-5.364s-5.203,2.415-4.871,6.093
		c0.329,3.679,0.711,5.831,4.758,5.896C898.525,731.397,899.997,728.699,899.448,724.707"/>
	<path clip-path="url(#SVGID_4_)" fill="#FFFFFF" d="M885.603,675.647c0,0-0.898-5.555-6.105-3.874
		c-5.214,1.681-4.374,3.716-3.071,7.173c1.3,3.457,2.242,5.429,6.156,4.412C886.499,682.341,887.198,679.347,885.603,675.647"/>
	<path clip-path="url(#SVGID_4_)" fill="#FFFFFF" d="M859.354,630.569c0,0-2.363-5.106-6.925-2.082
		c-4.564,3.026-3.205,4.758-1.021,7.737c2.182,2.976,3.626,4.62,7.118,2.585C862.026,636.774,861.89,633.703,859.354,630.569"/>
</g>
</svg>
